<mxfile host="app.diagrams.net" agent="Mozilla/5.0 (Windows NT 10.0; Win64; x64) AppleWebKit/537.36 (KHTML, like Gecko) Chrome/137.0.0.0 Safari/537.36" version="27.1.3">
  <diagram name="Trang-1" id="Z2SD75oCye9RgdntAtLV">
    <mxGraphModel dx="1042" dy="561" grid="1" gridSize="10" guides="1" tooltips="1" connect="1" arrows="1" fold="1" page="1" pageScale="1" pageWidth="827" pageHeight="1169" math="0" shadow="0">
      <root>
        <mxCell id="0" />
        <mxCell id="1" parent="0" />
        <mxCell id="j2vjbWwgdiGgmv4Y5lXR-1" value="Admin" style="shape=umlActor;verticalLabelPosition=bottom;verticalAlign=top;html=1;" vertex="1" parent="1">
          <mxGeometry x="320" y="480" width="30" height="60" as="geometry" />
        </mxCell>
        <mxCell id="j2vjbWwgdiGgmv4Y5lXR-2" value="" style="rounded=0;whiteSpace=wrap;html=1;" vertex="1" parent="1">
          <mxGeometry x="472" y="214" width="447" height="642" as="geometry" />
        </mxCell>
        <mxCell id="j2vjbWwgdiGgmv4Y5lXR-3" value="Tạo tài khoản mới" style="ellipse;whiteSpace=wrap;html=1;" vertex="1" parent="1">
          <mxGeometry x="578" y="233" width="120" height="80" as="geometry" />
        </mxCell>
        <mxCell id="j2vjbWwgdiGgmv4Y5lXR-4" value="Xoá tài khoản" style="ellipse;whiteSpace=wrap;html=1;" vertex="1" parent="1">
          <mxGeometry x="578" y="343" width="120" height="80" as="geometry" />
        </mxCell>
        <mxCell id="j2vjbWwgdiGgmv4Y5lXR-5" value="Chỉnh sửa quyền của tài khoản" style="ellipse;whiteSpace=wrap;html=1;" vertex="1" parent="1">
          <mxGeometry x="788" y="399.5" width="120" height="80" as="geometry" />
        </mxCell>
        <mxCell id="j2vjbWwgdiGgmv4Y5lXR-6" value="Chỉnh sửa thông tin tài khoản" style="ellipse;whiteSpace=wrap;html=1;" vertex="1" parent="1">
          <mxGeometry x="578" y="470" width="120" height="80" as="geometry" />
        </mxCell>
        <mxCell id="j2vjbWwgdiGgmv4Y5lXR-7" value="Chỉnh sửa mật khẩu tài khoản" style="ellipse;whiteSpace=wrap;html=1;" vertex="1" parent="1">
          <mxGeometry x="792" y="540" width="120" height="80" as="geometry" />
        </mxCell>
        <mxCell id="j2vjbWwgdiGgmv4Y5lXR-8" style="rounded=0;orthogonalLoop=1;jettySize=auto;html=1;entryX=-0.008;entryY=0.588;entryDx=0;entryDy=0;entryPerimeter=0;endArrow=none;startFill=0;" edge="1" parent="1" source="j2vjbWwgdiGgmv4Y5lXR-1" target="j2vjbWwgdiGgmv4Y5lXR-3">
          <mxGeometry relative="1" as="geometry" />
        </mxCell>
        <mxCell id="j2vjbWwgdiGgmv4Y5lXR-9" style="rounded=0;orthogonalLoop=1;jettySize=auto;html=1;entryX=0;entryY=0.5;entryDx=0;entryDy=0;endArrow=none;startFill=0;" edge="1" parent="1" source="j2vjbWwgdiGgmv4Y5lXR-1" target="j2vjbWwgdiGgmv4Y5lXR-4">
          <mxGeometry relative="1" as="geometry" />
        </mxCell>
        <mxCell id="j2vjbWwgdiGgmv4Y5lXR-10" style="edgeStyle=orthogonalEdgeStyle;rounded=0;orthogonalLoop=1;jettySize=auto;html=1;endArrow=none;startFill=0;" edge="1" parent="1" source="j2vjbWwgdiGgmv4Y5lXR-1" target="j2vjbWwgdiGgmv4Y5lXR-6">
          <mxGeometry relative="1" as="geometry" />
        </mxCell>
        <mxCell id="j2vjbWwgdiGgmv4Y5lXR-11" value="Xem thông tin tài khoản&amp;nbsp;" style="ellipse;whiteSpace=wrap;html=1;" vertex="1" parent="1">
          <mxGeometry x="578" y="683" width="120" height="80" as="geometry" />
        </mxCell>
        <mxCell id="j2vjbWwgdiGgmv4Y5lXR-12" style="rounded=0;orthogonalLoop=1;jettySize=auto;html=1;entryX=0;entryY=0.5;entryDx=0;entryDy=0;endArrow=none;startFill=0;" edge="1" parent="1" source="j2vjbWwgdiGgmv4Y5lXR-1" target="j2vjbWwgdiGgmv4Y5lXR-11">
          <mxGeometry relative="1" as="geometry" />
        </mxCell>
        <mxCell id="j2vjbWwgdiGgmv4Y5lXR-13" value="tìm kiếm tài khoản" style="ellipse;whiteSpace=wrap;html=1;" vertex="1" parent="1">
          <mxGeometry x="578" y="577" width="120" height="80" as="geometry" />
        </mxCell>
        <mxCell id="j2vjbWwgdiGgmv4Y5lXR-14" style="rounded=0;orthogonalLoop=1;jettySize=auto;html=1;entryX=0;entryY=0.5;entryDx=0;entryDy=0;endArrow=none;startFill=0;" edge="1" parent="1" source="j2vjbWwgdiGgmv4Y5lXR-1" target="j2vjbWwgdiGgmv4Y5lXR-13">
          <mxGeometry relative="1" as="geometry" />
        </mxCell>
        <mxCell id="j2vjbWwgdiGgmv4Y5lXR-15" value="&lt;b&gt;&lt;font style=&quot;font-size: 30px;&quot;&gt;Quản lý người dùng&lt;/font&gt;&lt;/b&gt;" style="text;html=1;align=center;verticalAlign=middle;resizable=0;points=[];autosize=1;strokeColor=none;fillColor=none;" vertex="1" parent="1">
          <mxGeometry x="432" y="160" width="311" height="48" as="geometry" />
        </mxCell>
        <mxCell id="j2vjbWwgdiGgmv4Y5lXR-16" style="rounded=0;orthogonalLoop=1;jettySize=auto;html=1;entryX=1;entryY=0.5;entryDx=0;entryDy=0;dashed=1;exitX=0;exitY=0.5;exitDx=0;exitDy=0;" edge="1" parent="1" source="j2vjbWwgdiGgmv4Y5lXR-18" target="j2vjbWwgdiGgmv4Y5lXR-11">
          <mxGeometry relative="1" as="geometry" />
        </mxCell>
        <mxCell id="j2vjbWwgdiGgmv4Y5lXR-17" value="&amp;lt;&amp;lt;extend &amp;gt;&amp;gt;" style="edgeLabel;html=1;align=center;verticalAlign=middle;resizable=0;points=[];rotation=-15;" connectable="0" vertex="1" parent="j2vjbWwgdiGgmv4Y5lXR-16">
          <mxGeometry x="-0.1005" y="2" relative="1" as="geometry">
            <mxPoint as="offset" />
          </mxGeometry>
        </mxCell>
        <mxCell id="j2vjbWwgdiGgmv4Y5lXR-18" value="Xem thông tin hoạt động của tài khoản" style="ellipse;whiteSpace=wrap;html=1;" vertex="1" parent="1">
          <mxGeometry x="788" y="646" width="120" height="80" as="geometry" />
        </mxCell>
        <mxCell id="j2vjbWwgdiGgmv4Y5lXR-19" style="rounded=0;orthogonalLoop=1;jettySize=auto;html=1;entryX=1;entryY=0.625;entryDx=0;entryDy=0;dashed=1;exitX=0;exitY=0.5;exitDx=0;exitDy=0;entryPerimeter=0;" edge="1" parent="1" source="j2vjbWwgdiGgmv4Y5lXR-21" target="j2vjbWwgdiGgmv4Y5lXR-11">
          <mxGeometry relative="1" as="geometry" />
        </mxCell>
        <mxCell id="j2vjbWwgdiGgmv4Y5lXR-20" value="&amp;lt;&amp;lt; extend &amp;gt;&amp;gt;" style="edgeLabel;html=1;align=center;verticalAlign=middle;resizable=0;points=[];rotation=30;" connectable="0" vertex="1" parent="j2vjbWwgdiGgmv4Y5lXR-19">
          <mxGeometry x="0.0024" y="1" relative="1" as="geometry">
            <mxPoint x="-1" as="offset" />
          </mxGeometry>
        </mxCell>
        <mxCell id="j2vjbWwgdiGgmv4Y5lXR-21" value="Xem thông tin các thiết bị của tài khoản" style="ellipse;whiteSpace=wrap;html=1;" vertex="1" parent="1">
          <mxGeometry x="788" y="757" width="120" height="80" as="geometry" />
        </mxCell>
        <mxCell id="j2vjbWwgdiGgmv4Y5lXR-22" style="rounded=0;orthogonalLoop=1;jettySize=auto;html=1;entryX=1;entryY=0.625;entryDx=0;entryDy=0;dashed=1;exitX=0;exitY=0.5;exitDx=0;exitDy=0;entryPerimeter=0;" edge="1" parent="1">
          <mxGeometry relative="1" as="geometry">
            <mxPoint x="790" y="579" as="sourcePoint" />
            <mxPoint x="700" y="515" as="targetPoint" />
          </mxGeometry>
        </mxCell>
        <mxCell id="j2vjbWwgdiGgmv4Y5lXR-23" value="&amp;lt;&amp;lt; extend &amp;gt;&amp;gt;" style="edgeLabel;html=1;align=center;verticalAlign=middle;resizable=0;points=[];rotation=30;" connectable="0" vertex="1" parent="j2vjbWwgdiGgmv4Y5lXR-22">
          <mxGeometry x="0.0024" y="1" relative="1" as="geometry">
            <mxPoint x="-1" as="offset" />
          </mxGeometry>
        </mxCell>
        <mxCell id="j2vjbWwgdiGgmv4Y5lXR-24" style="rounded=0;orthogonalLoop=1;jettySize=auto;html=1;dashed=1;exitX=0;exitY=0.5;exitDx=0;exitDy=0;entryX=1;entryY=0.5;entryDx=0;entryDy=0;" edge="1" parent="1" source="j2vjbWwgdiGgmv4Y5lXR-5" target="j2vjbWwgdiGgmv4Y5lXR-6">
          <mxGeometry relative="1" as="geometry">
            <mxPoint x="717" y="525" as="targetPoint" />
          </mxGeometry>
        </mxCell>
        <mxCell id="j2vjbWwgdiGgmv4Y5lXR-25" value="&amp;lt;&amp;lt;extend &amp;gt;&amp;gt;" style="edgeLabel;html=1;align=center;verticalAlign=middle;resizable=0;points=[];rotation=-40;" connectable="0" vertex="1" parent="j2vjbWwgdiGgmv4Y5lXR-24">
          <mxGeometry x="-0.1005" y="2" relative="1" as="geometry">
            <mxPoint as="offset" />
          </mxGeometry>
        </mxCell>
      </root>
    </mxGraphModel>
  </diagram>
</mxfile>
